<?xml version="1.0" encoding="UTF-8"?>
<svg id="_レイヤー_2" data-name="レイヤー 2" xmlns="http://www.w3.org/2000/svg" viewBox="0 0 555.54 752.34">
  <defs>
    <style>
      .cls-1 {
        fill: #e26917;
      }

      .cls-1, .cls-2, .cls-3, .cls-4, .cls-5, .cls-6, .cls-7, .cls-8, .cls-9, .cls-10, .cls-11, .cls-12, .cls-13, .cls-14, .cls-15, .cls-16, .cls-17, .cls-18, .cls-19, .cls-20, .cls-21, .cls-22 {
        stroke-width: 0px;
      }

      .cls-2 {
        fill: #ffec64;
      }

      .cls-3 {
        fill: #ffe14d;
      }

      .cls-4 {
        fill: #ff9739;
      }

      .cls-5 {
        fill: #d39a23;
      }

      .cls-6 {
        fill: #ffc52e;
      }

      .cls-7 {
        fill: none;
      }

      .cls-8 {
        fill: #4f2f2f;
      }

      .cls-9, .cls-15 {
        fill: #791628;
      }

      .cls-10 {
        fill: #1e2672;
      }

      .cls-11 {
        fill: #ddc84b;
      }

      .cls-12 {
        fill: #fff;
      }

      .cls-13 {
        fill: #3a1919;
      }

      .cls-14 {
        fill: #ffea94;
      }

      .cls-15 {
        fill-rule: evenodd;
      }

      .cls-16 {
        fill: #a31e36;
      }

      .cls-17 {
        fill: #605555;
      }

      .cls-18 {
        fill: #938282;
      }

      .cls-19 {
        fill: #2e3499;
      }

      .cls-20 {
        fill: #c6b44b;
      }

      .cls-21 {
        fill: #cecece;
      }

      .cls-22 {
        fill: #ea911b;
      }
    </style>
  </defs>
  <g id="_レイヤー_1-2" data-name="レイヤー 1">
    <g>
      <g>
        <g>
          <path class="cls-9" d="m231.43,428.07s-33.59,16.92-48.79,17.96c-24.7,1.7-75.64-44.49-75.64-44.49l31.16-48.11s38.69,23.08,49.94,27.98c6.27,2.73,48.3-25.8,65.82,8.63,11.28,22.16-22.49,38.03-22.49,38.03Z"/>
          <path class="cls-13" d="m181.37,450.07c-26.49,0-74.97-43.67-77.06-45.57-1.45-1.32-1.74-3.49-.67-5.14l31.17-48.11c1.17-1.81,3.56-2.36,5.41-1.26.38.23,37.86,22.56,49.16,27.6,1.37-.06,5.24-1.4,8.39-2.48,15.78-5.43,45.15-15.54,59.73,13.11,3.08,6.05,3.57,12.24,1.46,18.4-5.14,15-24.37,24.38-25.77,25.05-1.94.97-34.59,17.28-50.27,18.36-.5.04-1.02.05-1.54.05Zm-69.15-49.24c15.66,13.74,52.34,42.42,70.15,41.2,14.22-.98,46.94-17.38,47.26-17.54.03-.02.06-.03.09-.05h0c.17-.08,17.55-8.41,21.67-20.44,1.39-4.08,1.06-8.05-1.03-12.16-10.54-20.71-30.48-15.89-50-9.17-6.97,2.4-10.81,3.72-13.86,2.4-9.52-4.14-37.39-20.51-47.08-26.24l-27.21,42.01Z"/>
        </g>
        <path class="cls-3" d="m70.06,384.01c10.01,16.77,17.89,14.54,32.46,22.51,16.64,9.11,26.22,8.54,33.6-1.59,5.93-8.16,11.78-18.97,13.85-39.52,1.16-4.63-21.33-18.06-37.33-26.57-11.12-5.91-20.48-6.22-27.53-3.11-15.32,7.32-23.34,29.87-15.04,48.28Z"/>
        <path class="cls-22" d="m76.99,392.36c8.09,11.14,15.13,8.04,25.54,14.15,11.89,6.98,20.64,9.99,24.73,4.37,6.99-3.65,10.73-8.63,16.37-21.39.39-2.75-30.51-14.82-41.92-21.38-7.93-4.56-14.21-5.52-18.67-4.2-9.64,3.23-13.13,16.43-6.05,28.45Z"/>
        <path class="cls-13" d="m121.83,417.01c-7.02,0-14.37-3.23-21.23-6.98-4.06-2.22-7.53-3.59-10.89-4.91-8.22-3.24-15.32-6.05-23.09-19.05-.08-.13-.15-.27-.21-.41-8.97-19.91-1.04-44.92,16.97-53.53.04-.02.08-.04.11-.05,6.22-2.74,16.65-4.4,31.02,3.24,40.24,21.4,40.11,27.76,39.4,30.78-2.23,21.72-8.61,33.01-14.56,41.19-5.19,7.13-11.23,9.73-17.52,9.73Zm-48.21-34.85c6.31,10.49,11.38,12.49,19.04,15.51,3.42,1.35,7.29,2.88,11.79,5.34,16.75,9.17,23.3,6.63,28.44-.44,5.32-7.31,11.02-17.44,13.06-37.21-1.92-3.13-14.58-12.03-35.19-22.99-9.1-4.84-17.39-5.88-23.98-3.01-13.9,6.69-20.13,27.02-13.16,42.8Zm72.46-17.73s0,0,0,0c0,0,0,0,0,0Z"/>
        <rect class="cls-16" x="101.94" y="343.89" width="50.78" height="81.31" transform="translate(228.5 -7.69) rotate(32.78)"/>
        <path class="cls-9" d="m127.99,336.62l-13.34,20.71c.25,4.2,1.62,8.44,4.83,12.3,7.95,9.57,21.85,18.69,31.86,24.52l19.35-30.04-42.69-27.49Z"/>
        <rect class="cls-2" x="118.44" y="343.89" width="17.77" height="81.31" transform="translate(228.5 -7.69) rotate(32.78)"/>
        <g>
          <polygon class="cls-2" points="141.87 345.55 123.55 374 97.84 413.91 112.78 423.54 137.42 385.28 156.81 355.18 141.87 345.55"/>
          <path class="cls-11" d="m141.87,345.55l-18.32,28.45c4.08,4,8.95,7.83,13.87,11.28l19.39-30.11-14.94-9.62Z"/>
        </g>
        <path class="cls-13" d="m126.65,436.47c-.74,0-1.49-.21-2.16-.64l-42.69-27.49c-.89-.58-1.52-1.48-1.74-2.52-.22-1.04-.03-2.12.55-3.01l44.03-68.36c1.2-1.86,3.67-2.39,5.53-1.2l42.69,27.49c.89.58,1.52,1.48,1.74,2.52.22,1.04.03,2.12-.55,3.01l-44.03,68.36c-.76,1.19-2.05,1.83-3.37,1.83Zm-37.16-32.69l35.96,23.16,39.7-61.64-35.96-23.16-39.7,61.64Z"/>
        <path class="cls-3" d="m104.87,348.41s-5.88-7.63-13.51-7.3c-4.41.19-13.41,6.38-6.09,17.43,2.14,3.23,10.73,7.06,10.73,7.06,0,0,4.07,1.4,9.03-4.18,5.92-6.66-.17-13.01-.17-13.01Z"/>
        <path class="cls-13" d="m96.61,371.11c-.46,0-.93-.08-1.39-.25-6.43-2.38-16.9-9.13-15.39-19.33,1.05-7.07,4.68-10.08,7.55-11.36,9.18-4.09,22.19,4.22,23.65,5.18,1.84,1.22,2.35,3.7,1.13,5.54-1.22,1.84-3.7,2.35-5.54,1.13-3.46-2.27-11.9-6.37-15.98-4.55-.56.25-2.26,1.01-2.89,5.22-.93,6.27,10.15,10.61,10.26,10.66,2.06.78,3.12,3.08,2.35,5.14-.6,1.61-2.12,2.61-3.75,2.61Z"/>
      </g>
      <path class="cls-4" d="m201.6,294.24l-12.06,13.03c-18.67,12.98-40.33,24.46-50.38,26.7-1.6.35-2.96,1-4.05,1.91-2.23,1.85-3.22,4.81-2.54,7.59.31,1.28.96,2.45,1.87,3.4,1.08,1.2,2.14,2.11,3.41,2.97,9.74,6.57,29.45,6.76,55.18-.11l6.85-1.83c-4.43-15.91-10.21-32.95,1.73-53.66Z"/>
      <path class="cls-1" d="m198.11,295.92l-12.06,13.03c-9.05,6.29-19.06,12.51-27.86,17.22,1.76,19.44-8.07,28.26-8.07,28.26,8.58-.37,28.22-.04,39.4-3.03l6.85-1.83c-4.43-15.91-10.21-32.95,1.73-53.66Z"/>
      <path class="cls-13" d="m159.53,358.83c-10.18,0-18.33-1.89-23.94-5.68-1.55-1.05-2.85-2.18-4.11-3.57-1.37-1.44-2.34-3.23-2.81-5.16-1.04-4.26.48-8.82,3.87-11.63,1.58-1.32,3.51-2.24,5.74-2.74,9.39-2.09,30.68-13.41,48.61-25.83l11.77-12.71c1.38-1.5,3.67-1.71,5.31-.5,1.64,1.21,2.11,3.46,1.09,5.22-10.48,18.16-6.2,33.37-2.05,48.07l.71,2.52c.29,1.03.15,2.13-.38,3.06-.53.93-1.41,1.6-2.44,1.88l-6.85,1.83c-13.08,3.49-24.73,5.24-34.51,5.24Zm31.68-47.86c-19.2,13.28-40.64,24.56-51.2,26.9-.96.21-1.76.58-2.36,1.08-1.06.88-1.53,2.27-1.22,3.57.15.59.45,1.14.87,1.58.03.03.06.06.08.09.84.94,1.65,1.64,2.68,2.33,8.77,5.92,28.18,5.67,51.9-.66l2.94-.79c-2.9-10.32-5.82-21.55-3.7-34.11Z"/>
      <path class="cls-4" d="m431.35,601.89c-12.74,8.77-25.19,15.08-36.99,19.63l-.76,1.39c-26.78,49-84.91,86.67-135.21,87.62-25.07.45-44.5-8.97-54.87-26.42-13.76-23.13-35.28-31.54-49.43-27.9-10.35,2.67-16.51,11.39-16.92,23.93-.35,10.82,8.24,24.2,23.55,36.72,20.89,17.08,53.81,31.47,87.32,31.47,8.29,0,16.63-.88,24.82-2.82,69.54-16.47,133.22-70.69,154.85-131.86l3.76-11.86s-.09.06-.13.09Z"/>
      <path class="cls-1" d="m423.47,607.03c-24.9,56.7-85.15,105.65-150.6,121.15-8.19,1.94-16.53,2.82-24.82,2.82-33.51,0-66.43-14.39-87.32-31.47-11.47-9.38-19.16-19.24-22.16-28.14-.82,2.65-1.29,5.58-1.39,8.76-.35,10.82,8.24,24.2,23.55,36.72,20.89,17.08,53.81,31.47,87.32,31.47,8.29,0,16.63-.88,24.82-2.82,69.54-16.47,133.21-70.69,154.85-131.86l3.76-11.86s-.09.06-.13.09c-2.64,1.82-5.27,3.53-7.88,5.14Z"/>
      <path class="cls-13" d="m248.05,752.34c-37.05,0-70.71-16.72-89.85-32.37-16.29-13.32-25.41-27.88-25.02-39.95.46-14.24,7.91-24.58,19.92-27.68,15.6-4.01,39.11,4.92,53.87,29.73,9.64,16.21,27.89,24.89,51.36,24.47,48.97-.93,105.62-37.71,131.77-85.54l.76-1.4c.45-.83,1.19-1.47,2.07-1.81,12.51-4.83,24.68-11.29,36.16-19.2,0,0,0,0,.02,0l.33.48,1.96,2.7-2.21-3.24c1.4-.99,3.28-.97,4.67.04,1.39,1.01,1.97,2.8,1.45,4.44l-3.76,11.86s-.03.08-.04.12c-22.07,62.38-86.92,117.66-157.7,134.42-8.21,1.94-16.87,2.93-25.74,2.93Zm-87.09-92.96c-2.07,0-4.04.24-5.87.71-8.62,2.22-13.56,9.39-13.91,20.19-.3,9.42,7.95,21.94,22.09,33.5,18.08,14.78,49.84,30.56,84.79,30.56,8.25,0,16.29-.91,23.9-2.71,68.26-16.17,130.75-69.31,151.98-129.24l.37-1.17c-8.76,5.31-17.85,9.83-27.12,13.51l-.06.12c-27.41,50.16-87.02,88.72-138.64,89.7-26.54.48-47.22-9.6-58.39-28.38-10.91-18.34-26.8-26.78-39.12-26.78Z"/>
      <path id="silhouette" class="cls-3" d="m430.8,617.24c22.36-15.46,50.33-50.34,56.91-128.79,4.07-48.46-1.61-103.23-14.45-139.54-3.75-10.59-8.09-20.74-13.3-30.09-20.69-37.15-43.47-52.03-43.49-52.04-1.27-.97-2.55-1.92-3.86-2.85-1.76-1.27-3.55-2.52-5.4-3.72,0,0,0,0-.01,0,0,0,0,0-.01,0-20.79-13.31-44.21-20.45-69.62-21.22h0s0,0,0,0c-2.09-.06-4.2-.1-6.28-.1-60.51,0-123.04,25.67-147.39,71.79-19.36,36.66,7.08,46.95,9.21,49.39,10.71,9.58-22.11,115.97-22.11,115.97-17.14,1.99-46.18,14.14-49.9,41.83-.05.36,1.2,5.8,1.78,8.14.03.12.05.25.09.37.17.67.34,1.34.51,2.01-6.38-4.61-13.25-7.06-19.97-7.06-7.65,0-14.71,3.28-19.36,8.99-5.36,6.59-7.18,15.69-5.13,25.63,4.87,23.56,45.04,67.51,73.31,74.3,2.36.57,4.54.85,6.48.85,4.65,0,8.08-1.63,10.19-4.85,3.69-5.64,2.53-14.91.75-21.23,62.89,59.56,167.3,42.74,167.3,42.74h.4c14.57,0,31.18-1.36,56.24-10.77,25.06-9.42,37.12-19.72,37.12-19.72Z"/>
      <path class="cls-22" d="m469.17,352.12c-3.75-10.59-8.09-20.74-13.3-30.09-16.25-29.18-33.79-44.62-40.58-49.9,6.18,7.53,12.94,17.05,19.49,28.81,5.21,9.35,9.55,19.49,13.3,30.09,12.85,36.31,25.52,97.08,21.45,145.54-6.58,78.45-34.55,113.34-56.91,128.79,0,0-12.06,10.31-37.12,19.72-25.06,9.42-56.63,10.77-56.63,10.77,0,0-111.41,10.81-174.3-48.74,1.78,6.31,2.94,15.59-.75,21.23-2.1,3.22-5.53,4.85-10.19,4.85-1.94,0-4.12-.29-6.48-.85-9.89-2.37-21.23-9.3-32.01-18.31,15.3,18.21,36.3,35.37,53.1,39.4,2.36.57,4.54.85,6.48.85,4.65,0,8.08-1.63,10.19-4.85,3.69-5.64,2.53-14.91.75-21.23,62.89,59.56,167.3,42.74,167.3,42.74h.4c14.57,0,31.18-1.36,56.24-10.77,25.06-9.42,37.12-19.72,37.12-19.72,22.36-15.46,50.33-50.34,56.92-128.79,4.07-48.46-1.61-103.23-14.46-139.54Z"/>
      <path class="cls-22" d="m485.63,391.07c-5.53-13.73-12.53-26.98-21.4-38.62-114.11,23.48-199.18,47.98-199.18,47.98-34.57-1.13-77.12-3.14-77.12-3.14,0,1.64-2.72,11.05-6.47,23.23-.34,1.44-.7,2.91-1.06,4.42-5.5,22.55-6.84,44.34-8.96,51.49-.96.16-1.96.35-2.99.57.11.03-18.89,10.03-18.89,10.03,10,12,36.93,26.55,118,38,93.41,9.49,176.77,2.95,220.1-10.01,1.05-7,1.93-14.4,2.58-22.23,2.82-33.57,1-70.16-4.62-101.71Z"/>
      <path class="cls-22" d="m405.43,268.66s35.5,47.1-39.24,74.24l93.76-24.07s-9.2-29.77-54.53-50.17Z"/>
      <path class="cls-13" d="m303.25,657.94c-7.97,0-16.98-.33-26.65-1.26-29.02-2.77-69.05-11.61-101.19-37.44.13,4.48-.54,9.31-3.07,13.17-1.99,3.04-5.95,6.66-13.53,6.66-2.26,0-4.75-.32-7.41-.96-30.02-7.21-71.1-52.27-76.29-77.38-2.31-11.15-.2-21.43,5.94-28.97,5.42-6.65,13.6-10.46,22.47-10.46,4.64,0,9.36,1.03,13.96,3.03-.44-2.23-.39-2.67-.34-3.02,4-29.8,33.55-42.08,50.76-44.9,2.12-7.15,8.46-28.93,13.96-51.49,12.59-51.64,9.02-59.12,8.47-59.89-.03-.03-.06-.05-.09-.08-.23-.16-.79-.5-1.25-.77-6.72-4.03-27.16-16.3-8.63-51.39,14.79-28.01,43.53-45.36,65.04-54.98,26.92-12.04,58.23-18.95,85.88-18.95h0c2.12,0,4.28.03,6.41.1,26.14.79,50.25,8.14,71.66,21.85.02.01.05.03.07.04,1.7,1.1,3.46,2.32,5.54,3.82,1.15.82,2.38,1.73,3.84,2.84,1.99,1.34,24.44,17.05,44.66,53.35,5.01,9,9.45,19.04,13.58,30.7,13.02,36.8,18.78,92.23,14.67,141.21-6.7,79.86-35.46,115.66-58.47,131.64-1.63,1.35-14.01,11.21-38.14,20.29-25.79,9.7-42.95,11.03-57.64,11.03h-.09c-2.29.35-15.32,2.2-34.11,2.2Zm-133.5-52.94c1,0,1.99.37,2.75,1.1,60.75,57.53,162.89,41.86,163.92,41.7.21-.03.42-.05.64-.05h.4c13.94,0,30.23-1.27,54.83-10.52,23.98-9.01,35.82-18.93,35.93-19.03.1-.09.21-.17.32-.25,21.62-14.94,48.75-48.9,55.2-125.84,4.02-47.94-1.57-102.06-14.24-137.87-3.97-11.23-8.23-20.87-13.02-29.47-19.79-35.53-41.29-50.05-42.2-50.65-.09-.06-.19-.13-.27-.2-1.38-1.05-2.57-1.93-3.7-2.73-2-1.45-3.67-2.59-5.25-3.63-.02,0-.03-.02-.05-.03-20.16-12.9-42.89-19.82-67.54-20.57-2.06-.06-4.13-.09-6.17-.09-52.63,0-120.83,26.05-143.85,69.66-14.99,28.4-.51,37.08,5.68,40.79,1.23.74,2.08,1.25,2.75,1.94,2.54,2.38,4.72,7.46,2.22,25.85-1.4,10.31-4.15,23.93-8.16,40.49-6.8,28.07-15.02,55.31-15.1,55.58-.46,1.52-1.78,2.63-3.37,2.82-16.72,1.95-42.72,13.63-46.32,37.86.25,1.3,1.1,5.03,1.63,7.17l.06.28c.18.74.35,1.39.52,2.04.43,1.63-.21,3.36-1.6,4.32-1.39.96-3.24.93-4.6-.05-5.71-4.12-11.81-6.3-17.62-6.3-6.45,0-12.37,2.74-16.26,7.51-4.59,5.63-6.12,13.55-4.31,22.3,4.56,22.06,43.77,64.84,70.33,71.22,2.05.49,3.92.74,5.54.74,4.35,0,5.98-1.74,6.84-3.04,2.74-4.19,1.92-12.02.25-17.96-.49-1.73.24-3.58,1.78-4.51.64-.39,1.36-.58,2.07-.58Zm20.62-239.92s0,0,.01,0c0,0,0,0-.01,0Zm-.33-.34s.08.09.13.14c-.04-.05-.09-.09-.13-.14Z"/>
      <path class="cls-16" d="m465.68,332.66c-114.11,23.48-199.18,47.98-199.18,47.98-34.57-1.13-77.12-3.14-77.12-3.14,0,5.25-27.9,93.16-27.9,93.16,5.89,15.99,25.8,25.87,106.87,37.31,109.51,11.12,206.12-3.55,239.39-19.7,0,0,2.09-97.64-42.06-155.61Z"/>
      <path class="cls-15" d="m431.48,439.49c-23.05,14.08-93.52,24.92-93.52,24.92l1.91,31.99s76.14-12.76,113.01-39.49c31.19-22.61,30.42-66.96,24.23-74.02-4.83-5.51-25.02,44-45.63,56.6Z"/>
      <path class="cls-13" d="m345.24,515.88c-24.33,0-50.29-1.18-77.29-3.92-.05,0-.1-.01-.16-.02-40.5-5.72-65.93-11.01-82.46-17.17-15.62-5.81-23.87-12.61-27.6-22.72-.31-.83-.33-1.75-.06-2.59,10.45-32.94,27.19-86.96,27.71-92.06.03-1.05.47-2.06,1.24-2.79.79-.75,1.86-1.15,2.95-1.1.42.02,42.4,2,76.44,3.12,7.91-2.25,90.93-25.67,198.87-47.88,1.52-.31,3.06.27,3.99,1.49,23.32,30.61,33.73,72.01,38.36,101.34,4.99,31.65,4.54,55.77,4.52,56.78-.03,1.5-.9,2.86-2.25,3.51-24.1,11.7-85.66,24-164.26,24Zm-76.4-11.87c109.97,11.15,202.09-3.7,234.92-18.29-.07-15.25-2.27-97.35-39.76-148.62-111.42,23.03-195.55,47.15-196.39,47.39-.4.12-.82.16-1.24.15-28.58-.94-62.99-2.49-73.78-2.99-3.83,15.86-20.64,69.22-26.87,88.85,5.71,13.1,25,22.47,103.11,33.5Zm-83.45-126.57s0,.05,0,.07c0-.02,0-.05,0-.07Z"/>
      <g>
        <path class="cls-19" d="m182.73,367.23l2.54,18.36c.12.93.87,1.64,1.8,1.73l66.2,5.06s.03-.19.07-.54c1.3-11.03-6.82-20.95-17.88-22.01l-50.55-4.85c-1.28-.12-2.34.98-2.17,2.25Z"/>
        <path class="cls-13" d="m253.26,396.38c-.1,0-.2,0-.3-.01l-66.2-5.06c-2.88-.27-5.09-2.41-5.46-5.2l-2.53-18.33s0-.02,0-.03c-.24-1.82.36-3.63,1.63-4.95,1.28-1.32,3.05-1.98,4.89-1.8l50.55,4.85c6.47.62,12.28,3.75,16.36,8.8,4.04,5.01,5.86,11.28,5.11,17.65-.05.46-.1.72-.1.72-.33,1.94-2.01,3.36-3.95,3.36Zm-64.25-12.92l60.39,4.62c-.28-3.04-1.45-5.95-3.43-8.39-2.72-3.37-6.59-5.45-10.9-5.87l-48.03-4.61,1.97,14.26Zm.22,1.56v.03s0-.02,0-.03Z"/>
      </g>
      <path class="cls-19" d="m465.95,316.54l5.57,16.53c.04.93-.56,1.77-1.46,2.02l-216.8,57.29s-1.38-21.8,14.28-27.16l195.88-50.51c1.24-.35,2.48.55,2.54,1.83Z"/>
      <path class="cls-10" d="m393.79,332.66s6.2,5.84,2.68,19.62l75.05-19.22-5.57-16.53-72.16,16.12Z"/>
      <path class="cls-13" d="m253.26,396.38c-.83,0-1.65-.26-2.34-.75-.97-.7-1.58-1.8-1.65-2.99-.06-1.01-1.36-24.92,16.98-31.2.1-.03.2-.06.3-.09l195.88-50.51c1.69-.48,3.56-.14,5.05.93,1.3.94,2.15,2.33,2.41,3.88l5.44,16.14c.12.35.19.72.2,1.09.13,2.82-1.67,5.31-4.39,6.06l-216.85,57.31c-.34.09-.68.13-1.02.13Zm15.44-27.33c-8.31,2.94-10.63,12.22-11.25,18.08l209.43-55.34-4.29-12.74-193.89,50Zm195.8-50.49l-.08.02s.05-.01.08-.02Z"/>
      <path class="cls-13" d="m250.82,505.21h-.08c-1.9-.04-3.41-1.62-3.37-3.52l2.44-109.39c.04-1.88,1.58-3.37,3.44-3.37h.08c1.9.04,3.41,1.62,3.37,3.52l-2.44,109.39c-.04,1.88-1.58,3.37-3.44,3.37Z"/>
      <g>
        <g>
          <path class="cls-2" d="m257,439.62c-11.22,0-21.54-1.2-30.66-3.59-1.77-.46-2.82-2.27-2.36-4.04.46-1.77,2.27-2.83,4.04-2.36,11.66,3.06,31.78,5.6,61.4.32,1.8-.33,3.52.88,3.84,2.68s-.88,3.52-2.68,3.84c-11.79,2.1-23.08,3.15-33.58,3.15Z"/>
          <g>
            <circle class="cls-2" cx="220.8" cy="431.8" r="8.79"/>
            <path class="cls-20" d="m220.8,443.09s-.09,0-.14,0c-3.01-.04-5.83-1.24-7.94-3.4s-3.25-5-3.21-8.02c.04-3.01,1.24-5.83,3.4-7.94,2.16-2.11,5.01-3.21,8.02-3.21,3.02.04,5.84,1.24,7.94,3.4s3.25,5,3.21,8.02c-.07,6.18-5.12,11.15-11.29,11.15Zm0-17.58c-1.65,0-3.21.63-4.39,1.79-1.2,1.17-1.87,2.75-1.89,4.42-.02,1.68.62,3.27,1.79,4.47,1.17,1.2,2.74,1.88,4.42,1.89.03,0,.05,0,.08,0,3.43,0,6.25-2.77,6.29-6.21.02-1.68-.62-3.27-1.79-4.47-1.17-1.2-2.75-1.88-4.42-1.89-.03,0-.05,0-.08,0Z"/>
          </g>
          <g>
            <circle class="cls-2" cx="296.37" cy="433.06" r="8.79"/>
            <path class="cls-20" d="m296.38,444.35s-.09,0-.14,0c-3.01-.04-5.83-1.24-7.94-3.4-2.11-2.16-3.25-5-3.21-8.02.04-3.02,1.24-5.84,3.4-7.94,2.12-2.07,4.92-3.21,7.88-3.21.05,0,.09,0,.14,0,6.22.07,11.23,5.2,11.15,11.42-.04,3.01-1.24,5.84-3.4,7.94-2.12,2.07-4.92,3.21-7.88,3.21Zm0-17.58c-1.65,0-3.21.63-4.39,1.79-1.2,1.17-1.88,2.75-1.89,4.42-.02,1.68.62,3.27,1.79,4.47,1.17,1.2,2.75,1.87,4.42,1.89.03,0,.05,0,.08,0,1.65,0,3.21-.63,4.39-1.79,1.2-1.17,1.88-2.74,1.89-4.42.04-3.47-2.75-6.32-6.21-6.36-.03,0-.05,0-.08,0Zm8.79,6.39h0,0Z"/>
          </g>
        </g>
        <g>
          <path class="cls-2" d="m252.95,405.82c-9.24,0-17.84-.88-25.59-2.64-1.78-.41-2.9-2.18-2.49-3.96s2.18-2.9,3.96-2.49c11.74,2.67,31.91,4.52,61.37-1.76,1.78-.38,3.54.76,3.93,2.54.38,1.79-.76,3.54-2.54,3.93-13.67,2.92-26.69,4.38-38.63,4.38Z"/>
          <g>
            <circle class="cls-2" cx="221.7" cy="399.18" r="8.79"/>
            <path class="cls-20" d="m221.69,410.47c-2.93,0-5.71-1.12-7.83-3.16-2.17-2.09-3.4-4.91-3.45-7.92s1.07-5.87,3.16-8.04c2.09-2.17,4.91-3.4,7.92-3.45,2.99-.05,5.87,1.07,8.04,3.16,2.17,2.09,3.4,4.91,3.45,7.92s-1.07,5.87-3.16,8.04c-2.09,2.17-4.91,3.4-7.92,3.45-.07,0-.14,0-.21,0Zm.01-17.58s-.08,0-.12,0c-1.68.03-3.25.71-4.41,1.92-1.17,1.21-1.79,2.8-1.76,4.48.03,1.68.71,3.25,1.92,4.41,1.21,1.17,2.81,1.79,4.48,1.76,1.68-.03,3.25-.71,4.41-1.92,1.17-1.21,1.79-2.8,1.76-4.48h0c-.03-1.68-.71-3.25-1.92-4.41-1.18-1.14-2.72-1.76-4.36-1.76Z"/>
          </g>
          <g>
            <circle class="cls-2" cx="297.27" cy="397.79" r="8.79"/>
            <path class="cls-20" d="m297.27,409.08c-6.13,0-11.17-4.93-11.29-11.08-.11-6.22,4.86-11.38,11.08-11.49.07,0,.14,0,.21,0,6.13,0,11.17,4.93,11.28,11.08.11,6.22-4.86,11.38-11.08,11.49-.07,0-.14,0-.21,0Zm0-17.58s-.08,0-.12,0c-3.47.06-6.23,2.93-6.17,6.4.06,3.43,2.87,6.17,6.29,6.17.04,0,.08,0,.12,0,3.47-.06,6.23-2.94,6.17-6.4h0c-.06-3.43-2.87-6.17-6.28-6.17Z"/>
          </g>
        </g>
        <g>
          <path class="cls-2" d="m255.49,473.52c-11.22,0-21.54-1.2-30.66-3.59-1.77-.46-2.82-2.27-2.36-4.04.46-1.77,2.27-2.83,4.04-2.36,11.66,3.06,31.78,5.6,61.4.32,1.8-.32,3.52.88,3.84,2.68.32,1.8-.88,3.52-2.68,3.84-11.79,2.1-23.08,3.15-33.58,3.15Z"/>
          <g>
            <circle class="cls-2" cx="219.28" cy="465.7" r="8.79"/>
            <path class="cls-20" d="m219.28,476.98s-.09,0-.14,0c-3.01-.04-5.83-1.24-7.94-3.4s-3.25-5-3.21-8.02c.04-3.01,1.24-5.83,3.4-7.94,2.16-2.11,4.99-3.24,8.02-3.21,6.22.08,11.23,5.2,11.15,11.42l-2.5-.03,2.5.03c-.07,6.18-5.12,11.15-11.29,11.15Zm0-17.58c-1.65,0-3.21.63-4.39,1.79-1.2,1.17-1.87,2.75-1.89,4.42-.04,3.47,2.75,6.32,6.21,6.36,3.47.09,6.32-2.75,6.36-6.21h0c.04-3.47-2.75-6.32-6.21-6.36-.03,0-.05,0-.08,0Z"/>
          </g>
          <g>
            <circle class="cls-2" cx="294.86" cy="466.96" r="8.79"/>
            <path class="cls-20" d="m294.86,478.25s-.09,0-.14,0c-3.01-.04-5.83-1.24-7.94-3.4-2.11-2.16-3.25-5-3.21-8.02.04-3.01,1.24-5.83,3.4-7.94,2.16-2.11,5.02-3.23,8.02-3.21,3.01.04,5.83,1.24,7.94,3.4,2.11,2.16,3.25,5,3.21,8.02h0c-.08,6.18-5.12,11.15-11.29,11.15Zm0-17.58c-1.65,0-3.21.63-4.39,1.79-1.2,1.17-1.88,2.74-1.89,4.42-.02,1.68.62,3.27,1.79,4.47,1.17,1.2,2.74,1.88,4.42,1.89.03,0,.05,0,.08,0,3.43,0,6.25-2.77,6.29-6.21.02-1.68-.62-3.27-1.79-4.47-1.17-1.2-2.74-1.88-4.42-1.89-.03,0-.05,0-.08,0Zm8.79,6.39h0,0Z"/>
          </g>
        </g>
      </g>
      <path class="cls-13" d="m243.15,304.2c-7.09,5.32-4.95,11.89,2.97,12.88,7.93.99,8.54,1.51,15.85-3.96,7.92-5.94,8.91-15.85,0-14.86-8.91.99-14.86,2.97-18.82,5.94Z"/>
      <circle class="cls-13" cx="213.44" cy="308.17" r="8.91"/>
      <path class="cls-13" d="m197.52,365.36c-2.21,0-4-1.79-4-4s1.79-4,4-4c9.78,0,40.34-11.69,50.05-29.33.53-.96,1.42-1.66,2.48-1.94,1.06-.28,2.18-.11,3.12.46,9.83,6.04,20.68,8.97,33.17,8.97s25.15-3,37.12-6.63c.05-.02.1-.03.15-.05,1.85-.56,3.68-1.13,5.49-1.71,2.11-.67,4.36.49,5.03,2.59s-.49,4.36-2.59,5.03c-14.23,4.55-29.56,8.77-45.2,8.77-12.58,0-23.72-2.68-33.92-8.17-13.06,18.76-43.76,30.01-54.9,30.01Z"/>
      <path class="cls-3" d="m439.24,545.86c-29.43-28.49-91.24-21.47-111.25,29.4-11.5,29.24-11.53,47.28-11.53,47.28,0,0,66.83,7.92,99.15-26.74,31.43-33.7,23.64-49.94,23.64-49.94Z"/>
      <path class="cls-13" d="m329.68,577.8c-.54,0-1.09-.11-1.61-.34-2.02-.89-2.94-3.25-2.05-5.27,10.91-24.73,31.79-41.78,57.29-46.77,22.8-4.46,45.38,1.56,60.4,16.11,1.59,1.54,1.63,4.07.09,5.66-1.54,1.59-4.07,1.63-5.66.09-13.15-12.73-33.07-17.96-53.3-14.01-22.9,4.48-41.67,19.84-51.51,42.15-.66,1.5-2.13,2.39-3.66,2.39Z"/>
      <path class="cls-13" d="m176.33,596.94c-3.39-7.74-29.64-61.98-46.31-74.8-2.23-1.72-4.56-3.23-6.94-4.52-10.94-13.72-25.44-21.58-37.12-20.06-5.34.7-12.59,3.63-16.87,13.63-1.03,2.16-12.77,28.05-1.12,65.69,4.44,14.36,10.84,17,17.03,19.55,7.01,2.89,14.96,6.16,24.98,30.61.05.12.11.25.17.37,4.01,7.51,14.75,19.64,29.75,19.64,2.65,0,5.43-.38,8.32-1.23,11.9-3.48,23.55-7.67,28.2-14.71,7.06-10.71,3.03-27.03-.09-34.17Z"/>
      <g>
        <path class="cls-18" d="m147.47,578.47c-2.31-3.91-11.38-13.72-13.59-27.32-6.4-39.32-49.3-66.19-61.15-38.31,0,0-12.52,25.44-.95,62.85,8.76,28.31,22.73,3.1,41.9,49.82,0,0,12.33,23.36,33.42,16.46,28.09-9.19,19.03-31.94.37-63.5Z"/>
        <path class="cls-13" d="m139.5,647.23c-14.68,0-25.32-12.2-29.35-19.85-.06-.11-.12-.23-.16-.35-10.03-24.45-17.97-27.72-24.98-30.61-6.19-2.55-12.59-5.19-17.03-19.55-11.65-37.64.09-63.54,1.12-65.69,4.25-9.91,12.61-14.89,22.97-13.63,18.3,2.21,41.05,24.01,45.77,52.95,1.61,9.86,7.31,17.75,10.71,22.46,1.01,1.4,1.81,2.5,2.38,3.47h0c13.87,23.46,21.48,40.62,16.57,53.65-2.73,7.24-8.99,12.37-19.14,15.69-3.08,1.01-6.04,1.46-8.85,1.46Zm-22.2-23.44c1.09,1.98,11.58,19.94,28.56,14.38,7.7-2.52,12.33-6.09,14.14-10.91,3.77-10-3.66-25.92-15.97-46.76h0c-.38-.65-1.12-1.67-1.97-2.85-3.82-5.29-10.21-14.13-12.12-25.86-4.07-25.01-23.73-44.47-38.83-46.29-6.88-.84-11.83,2.17-14.69,8.9-.03.07-.06.14-.09.2-.11.23-11.63,24.62-.71,59.91,3.33,10.76,6.95,12.25,12.44,14.52,8.02,3.3,17.99,7.42,29.25,34.77Z"/>
      </g>
      <path class="cls-13" d="m139.97,571.65c-1.03-1.57-2.35-17.73-5.31-17.64-19.4,18.41-53.53,32-55.71,31.14-2.37.41-2.79,3.93-.55,4.86,0,0,10.88,4.06,14.2,6.6,1.21.92,31.32-7.28,47.37-24.96Z"/>
      <path class="cls-13" d="m166.08,611.46l-7.14-12.37c-.47-.81-1.37-1.32-2.33-1.28l-11.03.36c-.41.01-.81.12-1.17.32l-28.97,15.79c-1.24.67-1.68,2.2-.98,3.4l9.62,16.67c3.73,6.46,10.6,10.13,17.61,10.13,3.22,0,6.46-.77,9.44-2.4l7.61-4.15c9.48-5.17,12.77-17.05,7.33-26.48Z"/>
      <path class="cls-4" d="m413.02,264.49c-.62,0-1.17.02-1.61.06-1.54.13-2.9,1.04-3.6,2.42-.7,1.38-.63,3.02.17,4.33,1.71,2.79,5.26,6.57,9.51,10.12l1.12.95c31.99,27.28,56.41,33.01,71.26,33.01,5.47,0,10.78-.76,15.78-2.26,23.11-6.94,37.4-21.45,43.06-32.71,2.46-4.91,2.83-8.16,2.83-9.67,0-2.28-1.73-4.2-4-4.43-3.15-.32-10.8-.47-23.39-.47-6.54,0-13.99.04-21.9.08-8.99.05-18.59.09-28.17.09-17.67,0-42.96-.15-58.57-1.41-.86-.07-1.69-.1-2.48-.1h0Z"/>
      <path class="cls-1" d="m551.54,270.73c-.32-.03-57.64,54.91-137.54,2.04-16.35-10.82-6.17,2.23,4.61,10.26,52.45,45.98,101.91,41.84,130.1-1.96,3.11-7.33,9.18-8.21,2.83-10.34Z"/>
      <path class="cls-13" d="m489.87,319.37c-15.52,0-40.93-5.9-73.85-33.96l-1.11-.94c-4.61-3.84-8.38-7.89-10.34-11.08-1.52-2.48-1.64-5.63-.33-8.23,1.34-2.63,3.89-4.35,6.83-4.6,1.32-.11,3.04-.09,4.75.04,15.46,1.25,40.65,1.4,58.25,1.4,9.6,0,19.03-.05,28.15-.09,7.92-.04,15.37-.08,21.92-.08,12.9,0,20.46.16,23.79.49,4.33.44,7.6,4.05,7.6,8.41,0,2.27-.56,6.1-3.25,11.46-6.04,12.01-21.16,27.45-45.49,34.75-5.38,1.61-11.07,2.43-16.93,2.43Zm-76.84-50.88c-.61,0-1.03.02-1.28.05-.16.01-.29.1-.36.24-.07.14-.06.3.02.43,1.47,2.41,4.79,5.9,8.66,9.13l1.14.97c31.07,26.49,54.49,32.06,68.67,32.06,5.08,0,10-.7,14.63-2.09,21.89-6.57,35.35-20.15,40.64-30.68,2.17-4.32,2.4-6.94,2.4-7.87,0-.23-.17-.42-.4-.45-2.97-.3-10.71-.45-22.99-.45-6.54,0-13.97.04-21.88.08-9.13.05-18.57.09-28.19.09-17.74,0-43.14-.15-58.89-1.42-.74-.06-1.47-.09-2.16-.09Z"/>
      <g>
        <path class="cls-16" d="m250.39,92.9c-34.72,5.95-79.03,19.36-77.84,26.33,8.57,50,31.35,88.19,39.92,138.19,43.13,6.27,82.41-7.05,127.08-24.77-8.57-50,1.57-90.85-7-140.85-1.19-6.97-47.45-4.86-82.16,1.1Z"/>
        <path class="cls-15" d="m332.56,91.81c-.77-4.51-20.46-5.22-43.66-3.53,4.75.7,7.68,1.85,7.97,3.53,8.57,50,6.92,90.2,15.5,140.2-30.57,12.12-67.12,25.8-95.61,28.94,41.46,4.82,79.62-8.2,122.8-25.32-8.57-50,1.57-93.81-7-143.81Z"/>
        <path class="cls-7" d="m250.39,95.75c-34.72,5.95-79.03,19.36-77.84,26.33,8.57,50,31.35,79.92,39.92,129.92,43.13,6.27,87.14-1.27,125.72-21.55-8.57-50,2.94-85.8-5.63-135.8-1.19-6.97-47.45-4.86-82.16,1.1Z"/>
        <path class="cls-7" d="m250.39,95.75c-34.72,5.95-79.03,19.36-77.84,26.33,8.57,50,31.35,79.92,39.92,129.92,43.13,6.27,87.14-1.27,125.72-21.55-8.57-50,2.94-85.8-5.63-135.8-1.19-6.97-47.45-4.86-82.16,1.1Z"/>
        <path class="cls-2" d="m204.33,111.3c-9.14,2.85-15.39,5.29-19.49,7.21l49.42,105.68,26.24-4.5,11.91-122.8c-6.7.79-13.34,1.74-19.53,2.8-15.71,2.69-33.87,7.03-48.56,11.61Z"/>
        <g>
          <path class="cls-7" d="m214.43,282.77c4.33,6.01,15.17,6.38,23.49,5.64,33.8-3.03,59.18-17.16,71.3-25.3,10.41-7,17.37-13.62,21.51-18.58-38.73,11.45-77.9,18.21-116.65,20.27-1.78,5.45-3.2,13.06.34,17.98Z"/>
          <path class="cls-7" d="m332.06,165.02c.38-21.88.77-44.51-3.3-68.8-2.13-1.02-10.01-2.43-28.04-1.75-15.38.58-33.94,2.54-49.66,5.23-15.72,2.69-33.87,7.03-48.56,11.61-17.24,5.37-24.19,9.32-25.85,10.99,4.26,24.31,12.07,46.29,19.63,67.55,3.67,10.33,7.4,20.84,10.77,31.72,41.45-3.16,83.43-11.7,124.91-25.62-.25-10.54-.08-20.82.09-30.93Z"/>
          <path class="cls-19" d="m335.56,235.69c-.03-.12-.06-.24-.08-.37-2.29-13.66-3.2-26.71-3.51-39.37-41.48,13.92-83.46,22.46-124.91,25.62,3.59,11.6,6.78,23.62,9.06,36.33.14.78.04,1.58-.27,2.3-.51,1.16-1.15,2.75-1.75,4.59,38.75-2.07,77.92-8.83,116.65-20.27,3.31-3.97,4.82-6.88,4.82-8.05v-.77Z"/>
        </g>
        <path class="cls-10" d="m212.48,252.01v8.27c34.65,3.38,91.12-10.39,127.08-24.65-2.35-13.72-3.29-27.98-3.6-41.02-9.16,3.15-18.34,6.04-27.54,8.66,1.03,8.98,2.3,18.18,3.94,27.74-30.99,16.71-99.88,21-99.88,21Z"/>
        <path class="cls-7" d="m250.39,95.75c-34.72,5.95-79.03,19.36-77.84,26.33,8.57,50,31.35,88.19,39.92,138.19,43.13,6.27,82.41-7.05,127.08-24.77-8.57-50,1.57-90.85-7-140.85-1.19-6.97-47.45-4.86-82.16,1.1Z"/>
        <path class="cls-13" d="m339.56,234.62c-94.68,27.36-127.34,23.87-127.34,23.87-6.07,13.87-10.05,37.14,26.06,33.9,60.11-5.4,101.27-45.21,101.27-55.92,0-.96,0-1.87,0-1.84Z"/>
        <path class="cls-13" d="m231.92,296.69c-11.5,0-19.55-3.1-23.98-9.24-6.55-9.08-3.01-21.83.08-29.31-4.33-23.52-11.93-44.92-19.28-65.61-7.76-21.84-15.78-44.42-20.13-69.76-.82-4.79,4.32-8.1,8.89-10.45,4.59-2.36,11.07-4.91,19.27-7.58,15.65-5.09,35.44-9.92,52.95-12.92,17.51-3,37.78-5.04,54.23-5.45,8.62-.22,15.58.03,20.69.73,5.09.7,11.04,2.11,11.86,6.89,4.35,25.37,3.95,48.66,3.56,71.17-.37,21.58-.76,43.89,3.13,67.8.14.31.24.63.3.98.05.27.07.53.06.79v.69s0,.06,0,.09v.96c0,14.64-45.41,54.57-104.92,59.91-2.36.21-4.6.32-6.72.32Zm-55.27-174.4c4.26,24.31,12.07,46.29,19.63,67.55,7.58,21.34,15.43,43.42,19.83,68.05.14.78.04,1.58-.27,2.3-2,4.59-6.15,15.99-1.4,22.57,4.33,6.01,15.17,6.38,23.49,5.64,33.8-3.03,59.18-17.16,71.3-25.3,18.75-12.6,26.33-24,26.33-26.64v-.77c-.03-.12-.06-.24-.08-.37-4.19-25.03-3.8-48.04-3.41-70.3.38-21.88.77-44.51-3.3-68.8-2.13-1.02-10.01-2.43-28.04-1.75-15.38.58-33.94,2.54-49.66,5.23-15.72,2.69-33.87,7.03-48.56,11.61-17.24,5.37-24.19,9.32-25.85,10.99Zm166.9,113.21h0,0Z"/>
        <path class="cls-21" d="m296.75,59.29c28.95,9.43,19.34,51.71-11.07,51.68,27.54,23.9-16.85,52.22-41.53,38.11-.99,4.33.57,48.19,8.22,67.66,0,0-.91,1.5-1.9,1.73-.87.2-3.17-.39-3.17-.39-10.38-15.8-41.14-76.08-28.91-139.67,23.27-120.94,146.44-69.67,78.36-19.12Z"/>
        <path class="cls-12" d="m290.22,55.29c28.95,9.43,19.34,51.71-11.07,51.68,27.54,23.9-16.85,52.22-41.53,38.11-.99,4.33.57,48.19,8.22,67.66,0,0-.91,1.5-1.9,1.73-.87.2-3.17-.39-3.17-.39-10.38-15.8-41.14-76.08-28.91-139.67,23.27-120.94,146.44-69.67,78.36-19.12Z"/>
        <g>
          <path class="cls-20" d="m268.34,220.96c2.35,13.72-6.61,25.76-18.96,26.81-11.32.96-21.46-7.82-23.47-19.54-2.01-11.72,4.63-23.37,15.62-26.24,12-3.13,24.46,5.24,26.81,18.96Z"/>
          <path class="cls-12" d="m242.05,205.04c2.46-.61,4.98-.68,7.49-.19,1.22.24,2.44.61,3.6,1.11,1.17.5,2.3,1.12,3.36,1.86,1.07.74,2.08,1.6,3,2.56.93.97,1.78,2.04,2.51,3.19,1.53,2.4,2.57,5.09,3.06,7.96.49,2.88.41,5.75-.23,8.53-.31,1.33-.75,2.62-1.3,3.84-.55,1.21-1.21,2.35-1.98,3.41-.76,1.05-1.62,2.02-2.55,2.87-.94.86-1.96,1.61-3.03,2.24-2.2,1.3-4.61,2.07-7.13,2.31-2.48.24-4.93-.05-7.28-.84-1.12-.38-2.21-.87-3.25-1.46-1.02-.58-2-1.27-2.91-2.04-.9-.77-1.75-1.62-2.51-2.54-.77-.93-1.46-1.93-2.06-2.98-1.24-2.17-2.08-4.54-2.51-7.05-.43-2.51-.42-5.02.02-7.48.21-1.19.53-2.36.95-3.49.41-1.12.92-2.21,1.52-3.23.6-1.03,1.3-2,2.06-2.89.78-.9,1.65-1.73,2.58-2.46,1.96-1.53,4.17-2.62,6.58-3.22m-.22-1.27c-10.19,2.58-16.38,13.35-14.52,24.22,1.86,10.87,11.29,18.96,21.76,18,11.34-1.04,19.51-12.14,17.36-24.71-2.16-12.57-13.55-20.32-24.59-17.52h0Z"/>
          <path class="cls-12" d="m230.16,227.51c1.13,6.57,5.49,11.83,11.04,13.99l-10.95-20.99c-.45,2.23-.5,4.6-.09,7Zm26.54-5.5c-.39-2.27-1.44-3.69-2.31-4.78-1.13-1.33-2.17-2.43-2.43-3.93-.29-1.67.64-3.48,2.35-3.86.08-.02.15-.02.23-.04-3.58-2.28-7.87-3.13-12.11-2.11-5.48,1.32-9.6,5.46-11.45,10.61.35-.06.67-.12.95-.18,1.55-.32,3.94-1.05,3.94-1.05.81-.23,1.14,1.11.34,1.39,0,0-.8.28-1.7.51l8.8,17.64,1.54-11.98-3.76-6.99c-.86.12-1.67.17-1.67.17-.85.12-.99-1.32-.15-1.45,0,0,2.63-.32,4.2-.65,1.69-.35,4.31-1.14,4.31-1.14.89-.24,1.24,1.15.36,1.45,0,0-.88.3-1.86.55l9.4,18.27.78-6.2c.36-2.74.51-4.67.24-6.24Zm-10.7,4.37l-2.21,15.87c1.51.31,3.07.4,4.67.23,1.92-.2,3.73-.76,5.38-1.6-.06-.07-.11-.15-.16-.23l-7.68-14.27Zm12.95-12.98c.18.58.33,1.2.45,1.89.32,1.89.34,4.07-.23,6.89l-2.62,16.95c4.72-3.8,7.34-10.29,6.16-17.2-.56-3.26-1.89-6.16-3.76-8.53Z"/>
        </g>
        <path class="cls-17" d="m226.99,261.97c-5.44.32-8.88.27-10.61.2-.84-.04-1.6.45-1.92,1.23-5.77,13.59-9.02,29.15,38.36,24.28,1.36-.14-34.27-7.15-24.9-24.2.38-.7-.13-1.55-.93-1.5Z"/>
      </g>
      <path class="cls-13" d="m128.66,648.59c-10,0-18.42-6.79-22.1-13.36l-7.91-14.11c-.52-.92-.65-2.02-.36-3.04.29-1.02.97-1.89,1.89-2.41l37.52-21.04c.55-.31,1.14-.47,1.72-.5.51-.14,1.04-.23,1.57-.25l11.03-.37c2.41-.1,4.73,1.18,5.95,3.35l7.14,12.73c3.19,5.68,3.96,11.54,2.25,16.93-1.65,5.19-5.49,9.6-11.12,12.75-.18.1-.36.18-.55.26-5.62,2.11-14.71,5.6-16.69,6.58-3.54,1.74-7.02,2.49-10.33,2.49Zm-21.08-27.9l5.96,10.62c3.13,5.58,11.84,12.57,21.92,7.61,2.83-1.39,14.7-5.87,17.12-6.78,3.68-2.12,6.15-4.9,7.15-8.05,1.03-3.23.47-6.89-1.61-10.59l-6.71-11.97-9.81.33c-.37.19-.75.32-1.14.39l-32.89,18.44Zm46.71,15.09h0,0Zm-1.96-34.28h-.03s.02,0,.03,0Z"/>
      <g>
        <path class="cls-18" d="m114.48,635.28c5.57,9.66,16.78,13.84,25.04,9.33l7.61-4.15c8.26-4.5,10.44-15.98,4.87-25.64l-8.36-14.5-37.52,20.45,8.36,14.5Z"/>
        <path class="cls-13" d="m132.32,650.41c-8.12,0-16.53-4.84-21.31-13.13h0l-8.36-14.5c-.54-.93-.68-2.04-.39-3.08s.99-1.91,1.94-2.43l37.52-20.45c1.91-1.04,4.29-.37,5.38,1.51l8.36,14.5c3.51,6.09,4.53,13.14,2.78,19.35-1.45,5.17-4.72,9.36-9.2,11.8l-7.61,4.15c-2.84,1.55-5.95,2.28-9.11,2.28Zm-14.38-17.12c4.49,7.78,13.31,11.29,19.66,7.82l7.61-4.15c3.29-1.8,4.72-4.77,5.33-6.94,1.17-4.14.43-8.95-2.01-13.19l-6.41-11.12-30.49,16.62,6.31,10.95Z"/>
      </g>
      <g>
        <ellipse class="cls-6" cx="312.91" cy="446.49" rx="69.09" ry="97.55" transform="translate(-70.82 59.17) rotate(-9.71)"/>
        <path class="cls-14" d="m322.37,538.21c-25.52,3.84-48.36-15.87-60.9-36.46-22.59-36.8-26.56-92.66,1.44-127.65,6.35-7.65,14.64-13.94,24.27-16.63l.31.75c-2.03,1.28-4.04,2.51-5.85,4.03-5.49,4.25-9.95,9.74-13.53,15.61-22.24,38.09-14.96,94.9,9.59,130.34,8.49,12.07,19.92,22.83,34.24,27.4,3.33,1.08,6.92,1.74,10.4,2.09,0,0,.02.53.02.53h0Z"/>
        <path class="cls-13" d="m320.89,547.36c-16.53,0-33.05-7.55-47.33-21.81-16.55-16.54-28.16-40.24-32.69-66.73-4.53-26.49-1.46-52.7,8.65-73.8,10.33-21.56,26.77-35.28,46.27-38.62,19.51-3.34,39.56,4.13,56.48,21.04,16.55,16.54,28.16,40.24,32.7,66.73h0c9.44,55.19-15.2,105.62-54.92,112.42-3.04.52-6.1.78-9.15.78Zm-16-193.74c-2.59,0-5.18.22-7.75.66-16.88,2.89-31.23,15.03-40.41,34.19-9.4,19.62-12.24,44.12-7.98,69s15.08,47.04,30.46,62.42c15.03,15.02,32.6,21.69,49.47,18.81,35.38-6.05,57.08-52.35,48.39-103.18h0c-4.26-24.87-15.08-47.04-30.46-62.42-12.74-12.73-27.3-19.47-41.72-19.47Z"/>
        <ellipse class="cls-5" cx="321.27" cy="445.51" rx="26.78" ry="44.94" transform="translate(-70.53 60.56) rotate(-9.71)"/>
      </g>
      <path class="cls-13" d="m307.99,291.61c-1.28,0-2.46-.7-3.08-1.83-.66-1.23-.54-2.73.33-3.83,6.21-7.9,18.72-12.38,19.25-12.57,1.83-.65,3.82.31,4.47,2.13.64,1.82-.31,3.82-2.13,4.47-.13.05-3.88,1.41-7.97,3.77,2.8-.2,5.91-.4,9.03-.58,1.94-.11,3.58,1.37,3.69,3.3.11,1.93-1.37,3.58-3.3,3.69-10.02.57-19.87,1.43-19.97,1.44-.1,0-.21.01-.31.01Z"/>
      <g>
        <ellipse class="cls-6" cx="73.25" cy="359.07" rx="97.55" ry="69.09" transform="translate(-289.88 408.44) rotate(-86.21)"/>
        <path class="cls-14" d="m54.78,452.25c-19.45-5.98-33.76-23.35-41.81-41.56-19.78-45.07-9.86-109.25,31.72-138.87,8.35-5.7,18.09-9.56,28.21-10.07l.14.8c-9.07,2.82-17.45,7.86-24.38,14.31-38.87,36.75-44.81,111.89-14.36,155.41,4.1,5.76,8.99,11.12,14.69,15.4,1.88,1.51,3.94,2.79,6.01,4.11l-.21.48h0Z"/>
        <ellipse class="cls-5" cx="81.99" cy="361.4" rx="48.84" ry="29.43" transform="translate(-284.04 419.35) rotate(-86.21)"/>
        <path class="cls-13" d="m70.06,460.51c-1.17,0-2.34-.04-3.52-.12C26.32,457.74-3.39,410.12.31,354.25c3.7-55.87,39.41-99.16,79.64-96.5,19.75,1.31,37.51,13.25,50.01,33.63,12.23,19.95,17.99,45.7,16.22,72.52-3.59,54.23-37.36,96.61-76.12,96.61Zm6.33-194.88c-34.57,0-64.79,39.13-68.1,89.14-3.41,51.47,22.96,95.27,58.77,97.64,1.01.07,2.02.1,3.03.1,34.57,0,64.79-39.13,68.1-89.14h0c1.67-25.18-3.68-49.26-15.06-67.81-11.11-18.11-26.63-28.7-43.72-29.83-1.01-.07-2.03-.1-3.03-.1Z"/>
      </g>
      <path class="cls-13" d="m341.36,582c-3.8-23.32-32.65-79.14-65.42-61.71-26.07,17.6-21.83,51.98-17.9,77.82,2.97,27.27-27.77,73.75,45.55,65.22,13.58-1.58,24.99-8.47,30.63-20.65,7.82-20.49,12.06-35.94,7.14-60.69Z"/>
      <g>
        <path class="cls-18" d="m264.04,513.86s-19.7,19.51-18.36,55.44c.94,25.21,15.19,7.23,11.49,54.42-1.7,21.66,11.48,34.38,41.13,34.9,9.28.16,15.45-22.74,20.25-62.16.51-4.19,2.12-12.59,0-30.5-4.28-36.25-29.2-72.42-54.51-52.1Z"/>
        <path class="cls-13" d="m298.42,662.63c-.06,0-.13,0-.19,0-17.26-.3-29.81-4.64-37.3-12.88-5.99-6.59-8.6-15.45-7.74-26.33,2.07-26.44-1.5-30.78-4.96-34.97-2.86-3.47-6.11-7.41-6.54-18.99-1.39-37.26,18.69-57.58,19.54-58.43.1-.1.2-.19.31-.28,8.56-6.87,17.89-8.54,26.99-4.82,18.6,7.61,31.18,35.72,34,59.56,1.97,16.69.8,25.46.17,30.17-.06.47-.12.9-.17,1.29-5.74,47.21-12.51,65.68-24.09,65.68Zm-31.69-145.8c-1.63,1.73-18.25,20.22-17.06,52.32.33,8.88,2.27,11.22,4.72,14.2,5.32,6.46,8.92,13.16,6.76,40.69-.67,8.59,1.24,15.43,5.69,20.32,5.95,6.55,16.56,10,31.52,10.27h.02c1.72,0,4.81-3.51,7.89-13.42,3.08-9.94,5.8-24.73,8.29-45.22.05-.42.11-.88.18-1.38.58-4.36,1.67-12.48-.18-28.17-2.92-24.68-15.42-47.51-29.08-53.1-6.27-2.56-12.58-1.39-18.76,3.5Z"/>
      </g>
      <path class="cls-13" d="m316.17,579.96c-.66-.48-1.51-.62-2.29-.38-27.68,8.73-66.09-3.38-66.48-3.5-.98-.31-2.06-.01-2.73.77-.67.78-.81,1.89-.35,2.82l6.27,12.6c.27.54.72.97,1.27,1.21.92.4,16.46,7.03,36.4,7.03,8.55,0,17.91-1.22,27.27-4.67,1.01-.37,1.68-1.33,1.68-2.41v-11.4c0-.82-.39-1.59-1.05-2.07Z"/>
      <path class="cls-13" d="m318.32,617.06c-.09-.87-.61-1.64-1.38-2.03s-1.7-.38-2.46.06l-10.16,5.89-39.35-2.25h0c-.68-.04-1.35.19-1.85.65-.51.45-.82,1.09-.85,1.77l-.75,13.44c-.72,12.86,8.37,23.37,21.17,24.09l10.26.57c.07,0,.13,0,.2,0,6.55-.14,11.99-2.6,16.16-7.29,11.52-12.99,9.14-33.8,9.03-34.89Z"/>
      <path class="cls-13" d="m320.84,616.63c-.26-1.1-1.22-1.9-2.36-1.97l-56.21-3.13c-.5-.03-1,.09-1.43.34l-11.95,6.92c-.98.57-1.47,1.72-1.21,2.82.26,1.1,1.22,1.9,2.36,1.97l56.21,3.13c.5.03,1-.09,1.43-.34l11.95-6.92c.98-.57,1.47-1.72,1.21-2.82Z"/>
      <g>
        <path class="cls-18" d="m271.99,659.92l11.39.64c25.51,1.42,24.47-35.99,24.47-35.99l-56.18-3.13s-2.08,37.24,20.32,38.49Z"/>
        <path class="cls-13" d="m284.8,664.6c-.54,0-1.09-.02-1.64-.05l-11.39-.63h0c-26.08-1.45-24.18-41.02-24.09-42.71.06-1.06.54-2.05,1.33-2.76.79-.71,1.83-1.07,2.89-1.01l56.18,3.13c2.08.12,3.72,1.8,3.78,3.88.03.92.5,22.68-10.91,33.77-4.35,4.23-9.78,6.38-16.14,6.38Zm-12.59-8.67l11.39.63c4.8.27,8.66-1.06,11.76-4.08,6.08-5.92,8-17.33,8.41-24.15l-48.12-2.68c.22,8.88,2.29,29.47,16.56,30.27h0Z"/>
      </g>
      <g>
        <path class="cls-3" d="m337.44,466.04c-15.66-4.75-22.41-15.66-23.24-21.04-1.2-7.75,3.93-16.44,13.06-22.14.82-.51,1.74-1.01,2.74-1.49,6.36-3.06,15.52-5.12,25.23-7.3,11.84-2.66,30.6-10.72,39.42,17.5,14.09,45.07-36.99,40.62-57.2,34.48Z"/>
        <path class="cls-22" d="m384.82,454.5c-12.29,4.87-27.07,6.08-47.28-.06-12.02-3.65-18.78-9.91-21.66-15.53-1.6,3.33-2.2,2.79-1.69,6.08.83,5.38,7.58,16.28,23.24,21.04,20.21,6.14,34.99,4.92,47.28.06,26.71-10.58,57.75-13.08,48.85-37.75-6.81,13.6-33.61,20.16-48.74,26.15Z"/>
        <path class="cls-13" d="m364.49,473.71c-9.46,0-19.35-1.15-28.21-3.84-17.16-5.21-24.97-17.36-26.03-24.25-1.44-9.33,4.4-19.59,14.89-26.15.96-.59,2-1.17,3.12-1.7,6.77-3.26,16.15-5.37,26.08-7.6,1.78-.4,3.77-1.05,5.88-1.74,11.07-3.61,27.8-9.08,40.4,16.06,10.09,20.13,12.84,29.29,10.51,35.01-1.75,4.3-5.71,5.67-9.54,6.99-1.39.48-2.82.98-4.27,1.63-7.49,3.39-19.74,5.6-32.83,5.6Zm10.79-60.45c-4.09,0-8.29,1.37-12.58,2.77-2.29.75-4.46,1.46-6.6,1.94-9.48,2.13-18.42,4.14-24.37,7-.86.41-1.65.85-2.36,1.29-7.64,4.78-12.15,12.07-11.21,18.14.61,3.98,6.42,13.56,20.45,17.82,18.75,5.69,43.79,3.88,55.42-1.39h0c1.78-.81,3.47-1.39,4.95-1.9,2.7-.93,4.38-1.55,4.74-2.45,1.18-2.91-2.27-12.47-10.25-28.41-5.78-11.53-11.86-14.81-18.19-14.81Z"/>
        <path class="cls-16" d="m454.45,435.47c-17.58,21.06-82.61,34.23-82.61,34.23l-19.68-59s49.49-10.02,54.33-18.89c5.9-10.8-1.54-21.84,6.73-29.78,44.68-42.91,55.84,13.75,63.85,17.99,0,0-5.94,35.48-22.61,55.46Z"/>
        <path class="cls-13" d="m362.5,476.22c-.8,0-1.59-.24-2.26-.7-.91-.62-1.52-1.59-1.69-2.68l-10.34-65.76c-.34-2.14,1.09-4.16,3.22-4.55.35-.07,35.53-6.72,51.24-16.59,2.4-1.59,5.39-14.67,6.28-27.45.15-2.2,2.05-3.87,4.27-3.71,2.2.15,3.87,2.06,3.71,4.27-.6,8.61-2.77,29.12-10.01,33.67-13.94,8.76-40.33,14.85-50.22,16.91l9.08,57.73c16.07-3.84,74.16-18.82,88.64-37.82,9.42-12.37,18.66-50.09,18.76-50.47.52-2.15,2.68-3.46,4.83-2.94,2.15.52,3.46,2.68,2.94,4.83-.39,1.62-9.73,39.74-20.17,53.43-18.54,24.33-94.22,41.04-97.43,41.74-.28.06-.57.09-.85.09Z"/>
        <g>
          <rect class="cls-16" x="345.26" y="399.86" width="61.48" height="74.2" transform="translate(-111.8 129.78) rotate(-17.09)"/>
          <rect class="cls-2" x="365.24" y="399.86" width="21.52" height="74.2" transform="translate(-111.8 129.78) rotate(-17.09)"/>
          <path class="cls-13" d="m357.52,485.46c-.65,0-1.29-.16-1.87-.46-.94-.5-1.64-1.35-1.95-2.36l-21.8-70.93c-.65-2.11.54-4.35,2.65-5l58.77-18.07c1.01-.31,2.11-.21,3.05.29.94.5,1.64,1.35,1.95,2.36l21.8,70.93c.31,1.01.21,2.11-.29,3.05-.5.94-1.35,1.64-2.36,1.95l-58.77,18.07c-.38.12-.78.18-1.18.18Zm-16.8-72.28l19.45,63.28,51.12-15.72-19.45-63.28-51.12,15.72Z"/>
        </g>
      </g>
      <g>
        <g>
          <path class="cls-15" d="m471.82,349.31c-.9-2.38-2.91-4.02-5.21-4.56,1.36-1.94,1.77-4.49.87-6.87-1.45-3.81-5.7-5.72-9.51-4.28,0,0-3.78.6-5.72,5.7l-20.11,2.47-3.23,1.23-16.68,11.5c-4.84-2.53-8.06-.46-8.06-.46-3.81,1.45-5.72,5.7-4.28,9.51.9,2.38,2.91,4.02,5.21,4.56-1.36,1.94-1.77,4.49-.87,6.87.9,2.38,2.91,4.02,5.21,4.56-1.36,1.94-1.77,4.49-.87,6.87.9,2.38,2.91,4.02,5.21,4.56-1.36,1.94-1.77,4.49-.87,6.87,1.41,3.72,5.52,5.63,9.26,4.36.08.47.2.94.38,1.4,1.45,3.81,5.7,5.72,9.51,4.28,1.22-.46,2.25-1.22,3.03-2.16.02.07.04.14.07.21,1.45,3.81,5.7,5.72,9.51,4.28,1.45-.55,2.62-1.52,3.44-2.7,1.6,1.45,3.79,2.13,5.98,1.82h0s0,0,0,0c.25-.04.5-.08.75-.14.28-.06.55-.14.83-.25h0s.07-.03.1-.05c.04-.01.07-.02.11-.03h0c.27-.1.53-.23.78-.36.23-.12.44-.25.65-.39,0,0,0,0,0,0h0c1.85-1.22,3.03-3.19,3.27-5.33,1.4.34,2.91.29,4.36-.26,3.81-1.45,5.72-5.7,4.28-9.51-.03-.07-.06-.14-.09-.21,1.21.18,2.48.07,3.7-.4,3.81-1.45,5.72-5.7,4.28-9.51-.18-.46-.39-.89-.65-1.3,3.64-1.53,5.45-5.68,4.03-9.4-.9-2.38-2.91-4.02-5.21-4.56,1.36-1.94,1.77-4.49.87-6.87-.9-2.38-2.91-4.02-5.21-4.56,1.36-1.94,1.77-4.49.87-6.87Z"/>
          <path class="cls-9" d="m442.05,411.7c-1.17,0-2.33-.25-3.43-.74-1.65-.74-2.98-1.96-3.85-3.51-.7.58-1.5,1.04-2.35,1.37-2.09.79-4.37.73-6.41-.19-2.04-.92-3.6-2.57-4.39-4.67-.07-.17-.12-.34-.18-.52-3.97.8-7.98-1.35-9.46-5.23-.83-2.19-.7-4.59.31-6.66-2.13-.87-3.82-2.59-4.65-4.78-.83-2.19-.7-4.59.31-6.66-2.13-.87-3.82-2.59-4.65-4.78-.83-2.19-.7-4.59.31-6.66-2.13-.87-3.82-2.59-4.65-4.77-1.63-4.29.51-9.1,4.77-10.77.62-.35,3.84-1.94,8.42.21l16.19-11.17c.07-.05.14-.08.21-.11l3.23-1.23c.07-.03.15-.05.23-.06l19.52-2.4c2-4.64,5.46-5.6,6.16-5.74,2.07-.76,4.31-.68,6.32.22,2.04.92,3.6,2.57,4.39,4.67.83,2.19.7,4.59-.31,6.66,2.13.87,3.82,2.59,4.65,4.77h0c.83,2.19.7,4.59-.31,6.66,2.13.87,3.82,2.59,4.65,4.78.83,2.19.7,4.59-.31,6.66,2.13.87,3.82,2.59,4.65,4.78,1.48,3.89-.1,8.16-3.6,10.19.08.17.15.34.21.51.79,2.09.73,4.37-.19,6.41s-2.57,3.6-4.67,4.39c-.85.33-1.76.51-2.67.54.38,1.73.19,3.54-.55,5.18-.92,2.04-2.57,3.6-4.67,4.39-1.25.48-2.59.63-3.91.48-.49,2.04-1.74,3.82-3.52,5h0s0,0,0,0c-.24.16-.49.31-.75.44-.27.15-.57.29-.89.41-.02,0-.07.02-.11.04-.04.02-.08.04-.12.05-.31.12-.62.21-.95.28-.27.07-.55.12-.83.16-.01,0-.02,0-.03,0-2.1.29-4.21-.22-5.93-1.41-.89,1-1.99,1.76-3.25,2.23-.97.37-1.97.55-2.98.55Zm-6.96-6.98c.06,0,.12,0,.18.02.36.07.65.32.76.66,0,0,.03.1.04.11.63,1.66,1.81,2.92,3.37,3.62,1.55.7,3.28.75,4.88.14,1.2-.46,2.23-1.26,2.97-2.34.16-.24.42-.39.71-.43.29-.04.57.06.79.25,1.4,1.27,3.3,1.84,5.17,1.57h.03c.21-.03.42-.07.62-.12.25-.06.48-.13.71-.21,0,0,.05-.03.11-.05.03-.01.12-.04.15-.05.19-.07.41-.18.62-.29.21-.11.4-.23.58-.35,0,0,0,0,0,0h0c1.59-1.05,2.62-2.73,2.82-4.61.03-.29.19-.54.42-.71.24-.16.53-.22.81-.15,1.26.31,2.57.24,3.77-.22,1.59-.6,2.85-1.79,3.55-3.35s.75-3.28.15-4.88l-.08-.19c-.13-.33-.08-.71.14-.99.22-.28.57-.42.93-.37,1.08.16,2.18.04,3.19-.34,1.59-.6,2.85-1.79,3.55-3.35s.75-3.28.15-4.88c-.15-.39-.34-.77-.56-1.12-.16-.25-.19-.55-.11-.83.09-.28.29-.51.57-.62,3.18-1.34,4.71-4.91,3.49-8.13-.75-1.98-2.44-3.46-4.51-3.94-.32-.08-.59-.31-.71-.62s-.07-.66.12-.93c1.22-1.74,1.5-3.96.75-5.94-.75-1.98-2.44-3.46-4.51-3.94-.32-.08-.59-.31-.71-.62-.12-.31-.07-.66.12-.93,1.22-1.74,1.51-3.96.75-5.94h0c-.75-1.98-2.44-3.46-4.51-3.94-.32-.08-.59-.31-.71-.62-.12-.31-.07-.66.12-.93,1.22-1.74,1.51-3.96.75-5.94-.6-1.59-1.79-2.85-3.35-3.55-1.55-.7-3.28-.75-4.88-.15-.06.02-.13.04-.2.05-.12.02-3.25.62-4.94,5.07-.13.35-.44.59-.81.64l-19.99,2.45-3.01,1.14-16.58,11.43c-.3.21-.7.24-1.03.06-4.21-2.2-6.95-.57-7.07-.5-.05.03-.12.07-.18.09-3.29,1.25-4.94,4.94-3.7,8.22.75,1.98,2.44,3.46,4.51,3.94.32.08.59.31.71.62.12.31.07.66-.12.93-1.22,1.74-1.51,3.96-.75,5.94.75,1.98,2.44,3.46,4.51,3.94.32.08.59.31.71.62.12.31.07.66-.12.93-1.22,1.74-1.51,3.96-.75,5.94.75,1.98,2.44,3.46,4.51,3.94.32.08.59.31.71.62.12.31.07.66-.12.93-1.22,1.74-1.51,3.96-.75,5.94,1.22,3.22,4.74,4.88,8,3.76.28-.09.58-.06.83.09.25.15.42.4.47.69.07.42.18.83.33,1.21.6,1.59,1.79,2.85,3.35,3.55s3.28.75,4.88.15c1.01-.39,1.92-1.03,2.62-1.87.19-.23.47-.36.77-.36Z"/>
        </g>
        <path class="cls-3" d="m474.45,343.7c-.9-2.38-2.9-4.03-5.2-4.57,1.37-1.93,1.78-4.49.89-6.87-1.44-3.81-5.69-5.73-9.5-4.3,0,0-3.79.59-5.74,5.69l-20.11,2.42-3.24,1.22-16.7,11.46c-4.83-2.54-8.06-.48-8.06-.48-3.81,1.44-5.73,5.69-4.3,9.5.9,2.38,2.9,4.03,5.2,4.57-1.37,1.93-1.78,4.49-.89,6.87s2.9,4.03,5.2,4.57c-1.37,1.93-1.78,4.49-.89,6.87.9,2.38,2.9,4.03,5.2,4.57-1.37,1.93-1.78,4.49-.89,6.87,1.41,3.73,5.5,5.64,9.25,4.38.08.47.2.94.38,1.4,1.44,3.81,5.69,5.73,9.5,4.3,1.22-.46,2.25-1.22,3.04-2.15.02.07.04.14.07.21,1.44,3.81,5.69,5.73,9.5,4.3,1.45-.55,2.62-1.51,3.44-2.7,1.6,1.45,3.79,2.14,5.98,1.83h0s0,0,0,0c.25-.04.5-.08.75-.14.28-.06.55-.14.83-.25h0s.07-.03.1-.05c.04-.01.07-.02.11-.03h0c.27-.1.53-.23.78-.36.23-.12.44-.25.66-.39,0,0,0,0,0,0h0c1.85-1.22,3.04-3.18,3.28-5.32,1.4.35,2.91.3,4.37-.25,3.81-1.44,5.73-5.69,4.3-9.5-.03-.07-.06-.14-.09-.21,1.21.18,2.48.07,3.7-.39,3.81-1.44,5.73-5.69,4.3-9.5-.17-.46-.39-.9-.64-1.3,3.65-1.52,5.46-5.67,4.06-9.4-.9-2.38-2.9-4.03-5.2-4.57,1.37-1.93,1.78-4.49.89-6.87-.9-2.38-2.9-4.03-5.2-4.57,1.37-1.93,1.78-4.49.89-6.87Z"/>
        <g>
          <path class="cls-20" d="m415.82,355.77c.38-.73.1-1.64-.64-2.02-.73-.38-1.64-.1-2.02.64-.02.03-1.68,3.16-4.65,4.66-2.78,1.4-4.72.84-4.79.82,1.03,1.24,2.43,2.11,3.97,2.47-.06.09-.12.19-.18.28.72-.2,1.51-.48,2.34-.9,3.83-1.92,5.88-5.79,5.96-5.95Z"/>
          <path class="cls-20" d="m420.43,367.22c.35-.75.03-1.64-.71-1.99-.75-.35-1.64-.04-2,.71-.01.03-1.48,3.05-4.38,4.6-2.74,1.46-4.7.95-4.76.94-.15-.05-.3-.06-.45-.06,1.02,1.19,2.39,2.01,3.88,2.37-.12.18-.23.36-.34.55.92-.2,1.96-.55,3.08-1.15,3.79-2.02,5.6-5.8,5.68-5.96Z"/>
          <path class="cls-20" d="m424.87,378.37c.35-.75.03-1.63-.71-1.99-.74-.36-1.64-.04-2,.7-.01.03-1.28,2.57-4.58,4.35-2.76,1.49-4.72,1.04-4.79,1.02-.24-.06-.47-.06-.7-.01,1.02,1.37,2.47,2.33,4.09,2.75.85-.22,1.8-.57,2.82-1.12,4.21-2.27,5.8-5.56,5.86-5.7Z"/>
          <path class="cls-20" d="m465.9,337.4c-3.04.79-4.87,0-4.97-.05-.74-.35-1.63-.05-1.99.69-.37.74-.06,1.64.69,2.01.2.1,1.51.7,3.68.7.96,0,2.09-.12,3.36-.45,1.07-.28,2.02-.67,2.84-1.1-.08-.02-.16-.05-.25-.07.9-1.27,1.37-2.8,1.35-4.38-.65.63-2.28,2.02-4.7,2.66Z"/>
          <path class="cls-20" d="m464.84,348.48c-.73-.37-1.63-.08-2.01.64-.38.74-.1,1.64.64,2.02.2.11,1.61.79,3.95.79.9,0,1.93-.1,3.08-.37,1.13-.27,2.17-.62,3.09-.99,0,0-.01,0-.02,0,.82-1.16,1.29-2.54,1.35-3.97-1.02.58-2.87,1.52-5.1,2.04-3.06.72-4.87-.12-4.97-.17Z"/>
          <path class="cls-20" d="m468.86,359.19c-.73-.37-1.62-.08-2.01.65-.38.73-.1,1.64.64,2.02.2.1,1.8.89,4.92.89.48,0,1-.02,1.56-.06,1.43-.11,2.79-.42,3.97-.77.74-1.08,1.17-2.34,1.27-3.65-1.23.53-3.29,1.26-5.47,1.43-3.21.24-4.81-.47-4.88-.5Z"/>
          <path class="cls-20" d="m429.75,388.59c.17-.81-.34-1.6-1.14-1.78-.8-.18-1.61.33-1.79,1.14,0,.03-.72,3.11-3.12,5.26-2.29,2.04-4.39,2.05-4.51,2.06-.37-.03-.71.1-.98.32,1.7,1.14,3.84,1.57,5.93,1.04.51-.33,1.04-.71,1.56-1.18,3.15-2.82,4.01-6.7,4.05-6.86Z"/>
          <path class="cls-20" d="m439.24,392.36c-.28-.77-1.12-1.17-1.9-.89-.78.27-1.19,1.12-.93,1.9.02.07.57,1.78-.54,4.23-1.14,2.55-4.44,4.12-4.47,4.13-.36.17-.61.45-.75.79,1.27.23,2.62.14,3.92-.35,1.22-.46,2.25-1.22,3.04-2.15.02.07.04.14.07.21.01.04.03.07.05.11.34-.47.65-.97.89-1.52,1.6-3.56.73-6.18.63-6.47Z"/>
          <path class="cls-20" d="m465.91,383.09c-.82-.1-1.53.46-1.65,1.26s.43,1.56,1.23,1.71c.01,0,1.4.28,3.3,2.24,1.9,1.97,2.46,4.15,2.62,5.06.93-1.79,1.13-3.95.36-5.99-.03-.07-.06-.14-.09-.21.04,0,.07,0,.11,0-.26-.32-.53-.65-.84-.97-2.66-2.75-4.8-3.09-5.04-3.12Z"/>
          <path class="cls-20" d="m473.69,375.39c-.79-.24-1.25-1.07-1.01-1.87.24-.79,1.07-1.25,1.86-1.01,0,0,.06.02.15.04-2.44-.69-4.12-.33-4.35-.28-.8.19-1.28.99-1.1,1.79s.98,1.3,1.79,1.13c.08-.02,2.03-.41,4.82,1.03,2.73,1.42,3.41,3.31,3.43,3.37.13.43.45.74.83.91.09-1.07-.04-2.17-.44-3.23-.17-.46-.39-.9-.64-1.3.17-.07.34-.16.5-.24-.67.12-1.33.18-1.96.18-2.07,0-3.77-.5-3.88-.53Z"/>
          <path class="cls-20" d="m479.93,372.55c-1.99.75-4.58.17-5.23,0,.78.22,1.63.54,2.54,1.01,1.15.6,2.04,1.27,2.73,1.93,2.06-1.23,3.35-3.36,3.56-5.67-.36.51-1.51,1.93-3.6,2.72Z"/>
          <path class="cls-20" d="m474.69,372.56c-.09-.02-.14-.04-.15-.04-.79-.23-1.63.22-1.86,1.01-.24.79.22,1.63,1.01,1.87.11.03,1.81.53,3.88.53.63,0,1.3-.06,1.96-.18.15-.08.29-.16.44-.24-.69-.66-1.58-1.33-2.73-1.93-.91-.47-1.76-.79-2.54-1.01Z"/>
          <path class="cls-20" d="m449.91,393.15c-.51-.64-1.44-.74-2.08-.24-.65.5-.77,1.44-.27,2.1.04.06,1.09,1.48.88,4.18-.22,2.85-2.43,5.5-2.45,5.52-.05.06-.09.12-.13.19.44-.08.88-.19,1.31-.36,1.45-.55,2.62-1.51,3.44-2.7.08.07.17.13.25.2.28-.82.5-1.7.57-2.62.3-3.88-1.33-6.03-1.52-6.27Z"/>
          <path class="cls-20" d="m457.97,390.01c-.7-.44-1.62-.23-2.06.47-.44.7-.24,1.62.46,2.07.02.01,1.67,1.1,3.18,3.64,1.21,2.04,1.39,4.49,1.41,5.34,1.19-1.18,1.96-2.73,2.15-4.4.04.01.08.01.13.02-.26-.82-.62-1.67-1.1-2.49-1.9-3.21-4.06-4.59-4.16-4.65Z"/>
        </g>
        <g>
          <path class="cls-16" d="m450.54,391.85c-9.59,3.62-20.34-1.24-23.96-10.84l-11.79-31.26s4.26-5.88,19.1-11.48c14.84-5.6,21.92-3.99,21.92-3.99l11.79,31.26c3.62,9.59-1.24,20.34-10.84,23.96l-6.23,2.35Z"/>
          <path class="cls-20" d="m443.99,396.05c-3.03,0-6.05-.65-8.9-1.93-5.26-2.38-9.28-6.66-11.31-12.05l-11.79-31.26c-.36-.94-.21-2,.38-2.82.49-.68,5.22-6.78,20.47-12.53,15.25-5.75,22.83-4.3,23.65-4.11.98.22,1.79.92,2.14,1.87l11.79,31.26c4.2,11.14-1.44,23.62-12.59,27.83l-6.23,2.35c-2.47.93-5.04,1.4-7.61,1.4Zm-25.73-45.62l11.13,29.52c1.47,3.89,4.37,6.98,8.17,8.7,3.8,1.72,8.04,1.86,11.93.39h0l6.23-2.35c8.05-3.04,12.12-12.05,9.09-20.1l-11.13-29.52c-2.65-.09-8.84.27-18.72,4-9.86,3.72-14.75,7.53-16.69,9.36Z"/>
        </g>
      </g>
      <path class="cls-8" d="m324.1,414.89c-.3-.49-.78-.82-1.33-.94-.56-.12-1.14-.02-1.62.31l-7.11,4.76c-.93.63-1.21,1.87-.64,2.83,2.49,4.14,14.4,25.8,4.91,46.26-.49,1.05-.06,2.27.96,2.77l7.66,3.8c.19.09.39.16.6.19.34.06.7.03,1.04-.09.54-.19.97-.57,1.21-1.09,12.61-26.79-2.51-53.69-5.67-58.81Z"/>
    </g>
  </g>
</svg>